<svg width="12" height="11" viewBox="0 0 12 11" fill="none" xmlns="http://www.w3.org/2000/svg">
<path d="M10.9434 4.73C10.9834 4.73 11.0134 4.79 11.0334 4.91C11.0734 5.03 11.0934 5.16 11.0934 5.3C11.0934 5.44 11.0734 5.58 11.0334 5.72C11.0134 5.84 10.9834 5.9 10.9434 5.9H6.59344V10.25C6.59344 10.29 6.51344 10.33 6.35344 10.37C6.21344 10.39 6.06344 10.4 5.90344 10.4C5.56344 10.4 5.39344 10.37 5.39344 10.31V5.9H1.04344C1.00344 5.9 0.963438 5.84 0.923438 5.72C0.903438 5.58 0.893438 5.43 0.893438 5.27C0.893438 5.13 0.903438 5.01 0.923438 4.91C0.963438 4.79 0.993438 4.73 1.01344 4.73H5.39344V0.38C5.39344 0.34 5.45344 0.31 5.57344 0.289999C5.71344 0.249999 5.85344 0.229999 5.99344 0.229999C6.13344 0.229999 6.26344 0.249999 6.38344 0.289999C6.52344 0.31 6.59344 0.34 6.59344 0.38V4.73H10.9434Z" fill="#4D3E75"/>
</svg>
